<?xml version="1.0" encoding="UTF-8" standalone="no"?>
<svg
   xmlns:dc="http://purl.org/dc/elements/1.1/"
   xmlns:cc="http://creativecommons.org/ns#"
   xmlns:rdf="http://www.w3.org/1999/02/22-rdf-syntax-ns#"
   xmlns:svg="http://www.w3.org/2000/svg"
   xmlns="http://www.w3.org/2000/svg"
   xmlns:sodipodi="http://sodipodi.sourceforge.net/DTD/sodipodi-0.dtd"
   xmlns:inkscape="http://www.inkscape.org/namespaces/inkscape"
   version="1.1"
   id="svg208"
   xml:space="preserve"
   width="589.33331"
   height="557.33331"
   viewBox="0 0 589.33331 557.33331"
   sodipodi:docname="lab01a_final_fsm.svg"
   inkscape:version="1.0.2 (e86c8708, 2021-01-15)"><metadata
     id="metadata214"><rdf:RDF><cc:Work
         rdf:about=""><dc:format>image/svg+xml</dc:format><dc:type
           rdf:resource="http://purl.org/dc/dcmitype/StillImage" /><dc:title></dc:title></cc:Work></rdf:RDF></metadata><defs
     id="defs212"><clipPath
       clipPathUnits="userSpaceOnUse"
       id="clipPath226"><path
         d="M 0,0 H 442 V 418 H 0 Z"
         id="path224" /></clipPath></defs><sodipodi:namedview
     pagecolor="#ffffff"
     bordercolor="#666666"
     borderopacity="1"
     objecttolerance="10"
     gridtolerance="10"
     guidetolerance="10"
     inkscape:pageopacity="0"
     inkscape:pageshadow="2"
     inkscape:window-width="1228"
     inkscape:window-height="777"
     id="namedview210"
     showgrid="false"
     inkscape:zoom="1.31878"
     inkscape:cx="250.68661"
     inkscape:cy="278.66666"
     inkscape:window-x="0"
     inkscape:window-y="25"
     inkscape:window-maximized="0"
     inkscape:current-layer="g216" /><g
     id="g216"
     inkscape:groupmode="layer"
     inkscape:label="lab01a_final_fsm"
     transform="matrix(1.3333333,0,0,-1.3333333,0,557.33333)"><g
       id="g218" /><g
       id="g220"><g
         id="g222"
         clip-path="url(#clipPath226)"><path
           d="M 0,418 H 442 V 0 H 0 Z"
           style="fill:#ffffff;fill-opacity:1;fill-rule:nonzero;stroke:none"
           id="path228" /></g></g><g
       id="g230"><path
         d="m 154.5,297.5 c 0,19.8823 16.1177,36 36,36 19.8822,0 36,-16.1177 36,-36 0,-19.8822 -16.1178,-36 -36,-36 -19.8823,0 -36,16.1178 -36,36 z"
         style="fill:#f2f2f2;fill-opacity:1;fill-rule:evenodd;stroke:none"
         id="path232" /><g
         id="g234"
         transform="matrix(7.874016e-5,0,0,-7.874016e-5,154.5,333.5)"><path
           d="M 0,457200 C 0,204695.4 204695.4,0 457200,0 709704.6,0 914400,204695.4 914400,457200 914400,709704.6 709704.6,914400 457200,914400 204695.4,914400 0,709704.6 0,457200 Z"
           style="fill:none;stroke:#000000;stroke-width:12700;stroke-linecap:butt;stroke-linejoin:miter;stroke-miterlimit:8;stroke-dasharray:none;stroke-opacity:1"
           id="path236" /></g><g
         id="g238"
         transform="translate(157.7275,-126)"><text
           transform="matrix(1,0,0,-1,0,418)"
           style="font-variant:normal;font-weight:normal;font-size:18px;font-family:Helvetica;-inkscape-font-specification:Helvetica;writing-mode:lr-tb;fill:#000000;fill-opacity:1;fill-rule:nonzero;stroke:none"
           id="text242"><tspan
             x="0 12.0006 22.9932 34.993801 45.986401"
             y="0"
             sodipodi:role="line"
             id="tspan240">STATE</tspan></text></g><g
         id="g244"
         transform="translate(215.7275,-129)"><text
           transform="matrix(1,0,0,-1,0,418)"
           style="font-variant:normal;font-weight:normal;font-size:12px;font-family:Helvetica;-inkscape-font-specification:Helvetica;writing-mode:lr-tb;fill:#000000;fill-opacity:1;fill-rule:nonzero;stroke:none"
           id="text248"><tspan
             x="0"
             y="0"
             id="tspan246">0</tspan></text></g><path
         d="m 304.5,233.5 c 0,19.8823 16.1177,36 36,36 19.8822,0 36,-16.1177 36,-36 0,-19.8822 -16.1178,-36 -36,-36 -19.8823,0 -36,16.1178 -36,36 z"
         style="fill:#f2f2f2;fill-opacity:1;fill-rule:evenodd;stroke:none"
         id="path250" /><g
         id="g252"
         transform="matrix(7.874016e-5,0,0,-7.874016e-5,304.5,269.5)"><path
           d="M 0,457200 C 0,204695.4 204695.4,0 457200,0 709704.6,0 914400,204695.4 914400,457200 914400,709704.6 709704.6,914400 457200,914400 204695.4,914400 0,709704.6 0,457200 Z"
           style="fill:none;stroke:#000000;stroke-width:12700;stroke-linecap:butt;stroke-linejoin:miter;stroke-miterlimit:8;stroke-dasharray:none;stroke-opacity:1"
           id="path254" /></g><g
         id="g256"
         transform="translate(307.9675,-190)"><text
           transform="matrix(1,0,0,-1,0,418)"
           style="font-variant:normal;font-weight:normal;font-size:18px;font-family:Helvetica;-inkscape-font-specification:Helvetica;writing-mode:lr-tb;fill:#000000;fill-opacity:1;fill-rule:nonzero;stroke:none"
           id="text260"><tspan
             x="0 12.0006 22.9932 34.993801 45.986401"
             y="0"
             sodipodi:role="line"
             id="tspan258">STATE</tspan></text></g><g
         id="g262"
         transform="translate(365.9675,-193)"><text
           transform="matrix(1,0,0,-1,0,418)"
           style="font-variant:normal;font-weight:normal;font-size:12px;font-family:Helvetica;-inkscape-font-specification:Helvetica;writing-mode:lr-tb;fill:#000000;fill-opacity:1;fill-rule:nonzero;stroke:none"
           id="text266"><tspan
             x="0"
             y="0"
             id="tspan264">1</tspan></text></g><path
         d="m 377.0085,233.5429 5.7748,0.4124 -0.0664,-0.009 5.5934,1.1655 -0.0616,-0.017 5.2305,1.8108 -0.0605,-0.0254 4.6864,2.3487 -0.0632,-0.0377 3.9607,2.7791 -0.0691,-0.0585 3.0536,3.1018 -0.0738,-0.0959 1.9652,3.317 -0.0598,-0.1554 0.6954,3.4245 -0.005,-0.1669 -0.4661,3.4246 0.0308,-0.1171 -1.3173,3.3169 0.0474,-0.0908 -2.0469,3.1018 0.0558,-0.07 -2.6548,2.7791 0.0621,-0.055 -3.1411,2.3487 0.0699,-0.0438 -3.5059,1.8109 0.081,-0.0332 -3.7491,1.1654 0.0954,-0.0197 -3.8707,0.4124 0.0855,-0.002 -3.8707,-0.253 0.0611,0.008 -3.7492,-0.715 0.0574,0.0145 -3.506,-1.111 0.0575,0.0222 -3.1412,-1.441 0.0617,0.0338 -2.6548,-1.705 0.1179,0.1055 -1.3696,-1.6864 -0.7762,0.6305 1.4201,1.7485 2.7519,1.7673 3.2012,1.4686 3.5637,1.1293 3.8085,0.7263 3.9444,0.2578 3.9621,-0.4221 3.8379,-1.193 3.5818,-1.8501 3.2077,-2.3985 2.7146,-2.8417 2.1,-3.1823 1.3588,-3.4215 0.4857,-3.5689 -0.729,-3.5903 -2.0394,-3.4421 -3.1283,-3.1777 -4.0281,-2.8263 -4.7487,-2.3801 -5.2918,-1.8321 -5.6576,-1.1788 -5.8082,-0.4148 -0.0713,0.9975 z m -4.9442,28.7039 -5.5643,-3.7468 0.3411,6.6995 z"
         style="fill:#000000;fill-opacity:1;fill-rule:nonzero;stroke:none"
         id="path268" /><path
         d="m 215.9956,322.4336 0.3579,2.6726 -0.0303,-0.1167 1.0435,2.6516 -0.0451,-0.0879 1.6832,2.6098 -0.0475,-0.0623 2.2773,2.5471 -0.0442,-0.0436 2.8256,2.4635 -0.0394,-0.0311 3.3283,2.359 -0.0351,-0.0227 3.7853,2.2335 -0.0315,-0.0171 4.1966,2.0872 -0.0424,-0.0187 9.4442,3.6516 -0.0513,-0.0167 10.5408,2.8154 -0.0497,-0.0106 11.272,1.8119 -0.0518,-0.006 11.6376,0.6411 -0.0676,9e-4 5.8417,-0.4696 -0.0749,0.0118 5.796,-1.3686 -0.0656,0.0203 5.7046,-2.2079 -0.056,0.0257 5.5675,-2.987 -0.0471,0.0287 5.3847,-3.7064 -0.0396,0.0303 5.1561,-4.3657 -0.0334,0.031 4.882,-4.9652 -0.0284,0.0315 4.5621,-5.5046 -0.0244,0.032 4.1965,-5.9842 -0.021,0.0327 3.7852,-6.4037 -0.0182,0.0336 3.3283,-6.7634 -0.0156,0.0351 2.8256,-7.0631 -0.0131,0.0369 2.2773,-7.3029 -0.0105,0.0391 1.6832,-7.4827 -0.008,0.0418 1.0435,-7.6026 -0.004,0.0447 0.1246,-2.668 0.9989,0.0467 -0.1257,2.6903 -1.0493,7.6459 -1.6923,7.5231 -2.2891,7.3409 -2.8401,7.0991 -3.3452,6.7978 -3.8049,6.437 -4.2192,6.0165 -4.5886,5.5365 -4.9128,4.9966 -5.1927,4.3966 -5.428,3.7362 -5.619,3.0147 -5.7653,2.2314 -5.8664,1.3853 -5.9133,0.4753 -11.6975,-0.6444 -11.3229,-1.8201 -10.5915,-2.8289 -9.4909,-3.6698 -4.2333,-2.1054 -3.8187,-2.2532 -3.3658,-2.3855 -2.868,-2.5005 -2.3241,-2.5995 -1.7314,-2.6845 -1.0838,-2.7544 -0.3661,-2.7327 0.9912,-0.1328 z m 121.0119,-47.376 3.2767,-5.8534 2.7167,6.1334 z"
         style="fill:#000000;fill-opacity:1;fill-rule:nonzero;stroke:none"
         id="path270" /><path
         d="m 366.4678,208.486 -0.4826,-17.198 -1.3646,-16.6681 -0.9743,-7.968 -1.1473,-7.628 -1.3052,-7.2242 -1.4476,-6.7536 -1.5747,-6.2163 -1.6869,-5.6131 -1.7848,-4.9443 -1.8702,-4.2116 -1.962,-3.4442 -1.8534,-1.8331 -0.7032,0.711 1.8045,1.7848 -0.0828,-0.108 1.9156,3.3627 -0.0225,-0.0446 1.8528,4.1725 -0.0134,-0.0332 1.7742,4.9147 -0.009,-0.0258 1.6798,5.5895 -0.006,-0.0212 1.5697,6.1968 -0.004,-0.0179 1.444,6.7366 -0.003,-0.0159 1.3024,7.209 -0.002,-0.0145 1.1452,7.6138 -0.002,-0.0137 0.9723,7.9513 -0.002,-0.0199 1.3628,16.6447 -0.002,-0.0267 0.4822,17.1846 0.9996,-0.0281 z m -15.3107,-91.2905 -6.6571,-0.8265 3.3331,5.8216 z"
         style="fill:#000000;fill-opacity:1;fill-rule:nonzero;stroke:none"
         id="path272" /><path
         d="m 101.5234,401.9995 8.3142,-0.3894 8.2701,-1.1378 8.1377,-1.835 7.9406,-2.4822 7.6791,-3.0795 7.3532,-3.6274 6.9628,-4.1258 6.5079,-4.575 5.9885,-4.9752 5.4042,-5.3267 4.755,-5.6297 4.0405,-5.8843 3.2599,-6.0908 2.4126,-6.2487 1.4976,-6.3575 0.1115,-1.3905 -0.9968,-0.08 -0.1085,1.3528 0.0117,-0.0747 -1.481,6.2871 0.0202,-0.0654 -2.3891,6.188 0.0256,-0.0558 -3.2324,6.0393 0.0287,-0.0471 -4.0107,5.841 0.0302,-0.0396 -4.7242,5.5932 0.031,-0.0335 -5.3729,5.2958 0.0315,-0.0285 -5.9566,4.9488 0.032,-0.0245 -6.4756,4.5522 0.0327,-0.0211 -6.9296,4.1061 0.0337,-0.0182 -7.3187,3.6103 0.0351,-0.0156 -7.6431,3.0651 0.0369,-0.0132 -7.9025,2.4703 0.0392,-0.0106 -8.0971,1.8259 0.0419,-0.008 -8.2269,1.1319 0.0448,-0.004 -8.2917,0.3883 0.0468,0.999 z m -0.1637,-3.4962 c -1.65508,0.0775 -2.93392,1.482 -2.85642,3.137 0.07751,1.6551 1.48202,2.9339 3.13702,2.8564 1.6551,-0.0775 2.9339,-1.482 2.8564,-3.137 -0.0775,-1.6551 -1.482,-2.9339 -3.137,-2.8564 z m 91.2111,-58.4627 -2.5108,-6.2206 -3.47,5.741 z"
         style="fill:#000000;fill-opacity:1;fill-rule:nonzero;stroke:none"
         id="path274" /><g
         id="g276"
         transform="translate(40.82795,-22)"><text
           transform="matrix(1,0,0,-1,0,418)"
           style="font-variant:normal;font-weight:normal;font-size:18px;font-family:Helvetica;-inkscape-font-specification:Helvetica;writing-mode:lr-tb;fill:#000000;fill-opacity:1;fill-rule:nonzero;stroke:none"
           id="text280"><tspan
             x="0 12.0006 22.9932 34.993801 48.002399"
             y="0"
             sodipodi:role="line"
             id="tspan278">START</tspan></text></g><g
         id="g282"
         transform="translate(247.9203,-39)"><text
           transform="matrix(1,0,0,-1,0,418)"
           style="font-variant:normal;font-weight:normal;font-size:18px;font-family:Helvetica;-inkscape-font-specification:Helvetica;writing-mode:lr-tb;fill:#000000;fill-opacity:1;fill-rule:nonzero;stroke:none"
           id="text286"><tspan
             x="0 12.0006 22.003201 27.001801 32.000401 42.002998 52.0056"
             y="0"
             sodipodi:role="line"
             id="tspan284">Button </tspan></text></g><g
         id="g288"
         transform="translate(245.9203,-60)"><text
           transform="matrix(1,0,0,-1,0,418)"
           style="font-variant:normal;font-weight:normal;font-size:18px;font-family:Helvetica;-inkscape-font-specification:Helvetica;writing-mode:lr-tb;fill:#000000;fill-opacity:1;fill-rule:nonzero;stroke:none"
           id="text292"><tspan
             x="0 12.0006 22.0014 31.0014 41.002201 51.002998"
             y="0"
             sodipodi:role="line"
             id="tspan290">Pushed</tspan></text></g><path
         d="m 272.5,115.5 c 0,19.8823 16.1177,36 36,36 19.8822,0 36,-16.1177 36,-36 0,-19.88225 -16.1178,-36 -36,-36 -19.8823,0 -36,16.11775 -36,36 z"
         style="fill:#f2f2f2;fill-opacity:1;fill-rule:evenodd;stroke:none"
         id="path294" /><g
         id="g296"
         transform="matrix(7.874016e-5,0,0,-7.874016e-5,272.5,151.5)"><path
           d="M 0,457200 C 0,204695.4 204695.4,0 457200,0 709704.6,0 914400,204695.4 914400,457200 914400,709704.6 709704.6,914400 457200,914400 204695.4,914400 0,709704.6 0,457200 Z"
           style="fill:none;stroke:#000000;stroke-width:12700;stroke-linecap:butt;stroke-linejoin:miter;stroke-miterlimit:8;stroke-dasharray:none;stroke-opacity:1"
           id="path298" /></g><g
         id="g300"
         transform="translate(275.9553,-308)"><text
           transform="matrix(1,0,0,-1,0,418)"
           style="font-variant:normal;font-weight:normal;font-size:18px;font-family:Helvetica;-inkscape-font-specification:Helvetica;writing-mode:lr-tb;fill:#000000;fill-opacity:1;fill-rule:nonzero;stroke:none"
           id="text304"><tspan
             x="0 12.0006 22.9932 34.993801 45.986401"
             y="0"
             sodipodi:role="line"
             id="tspan302">STATE</tspan></text></g><g
         id="g306"
         transform="translate(333.9553,-311)"><text
           transform="matrix(1,0,0,-1,0,418)"
           style="font-variant:normal;font-weight:normal;font-size:12px;font-family:Helvetica;-inkscape-font-specification:Helvetica;writing-mode:lr-tb;fill:#000000;fill-opacity:1;fill-rule:nonzero;stroke:none"
           id="text310"><tspan
             x="0"
             y="0"
             id="tspan308">2</tspan></text></g><path
         d="m 59.5,118.5 c 0,19.8823 16.11775,36 36,36 19.8822,0 36,-16.1177 36,-36 0,-19.88225 -16.1178,-36 -36,-36 -19.88225,0 -36,16.11775 -36,36 z"
         style="fill:#f2f2f2;fill-opacity:1;fill-rule:evenodd;stroke:none"
         id="path312" /><g
         id="g314"
         transform="matrix(7.874016e-5,0,0,-7.874016e-5,59.5,154.5)"><path
           d="M 0,457200 C 0,204695.4 204695.4,0 457200,0 709704.6,0 914400,204695.4 914400,457200 914400,709704.6 709704.6,914400 457200,914400 204695.4,914400 0,709704.6 0,457200 Z"
           style="fill:none;stroke:#000000;stroke-width:12700;stroke-linecap:butt;stroke-linejoin:miter;stroke-miterlimit:8;stroke-dasharray:none;stroke-opacity:1"
           id="path316" /></g><g
         id="g318"
         transform="translate(63.00161,-306)"><text
           transform="matrix(1,0,0,-1,0,418)"
           style="font-variant:normal;font-weight:normal;font-size:18px;font-family:Helvetica;-inkscape-font-specification:Helvetica;writing-mode:lr-tb;fill:#000000;fill-opacity:1;fill-rule:nonzero;stroke:none"
           id="text322"><tspan
             x="0 12.0006 22.9932 34.993801 45.986401"
             y="0"
             sodipodi:role="line"
             id="tspan320">STATE</tspan></text></g><g
         id="g324"
         transform="translate(121.0016,-309)"><text
           transform="matrix(1,0,0,-1,0,418)"
           style="font-variant:normal;font-weight:normal;font-size:12px;font-family:Helvetica;-inkscape-font-specification:Helvetica;writing-mode:lr-tb;fill:#000000;fill-opacity:1;fill-rule:nonzero;stroke:none"
           id="text328"><tspan
             x="0"
             y="0"
             id="tspan326">3</tspan></text></g><path
         d="m 283.0487,90.47716 -0.4648,-2.80737 0.0437,0.13705 -1.355,-2.78541 0.0587,0.09298 -2.1858,-2.74148 0.0555,0.05906 -2.9572,-2.6756 0.0473,0.03784 -3.6693,-2.58777 0.0395,0.02516 -4.322,-2.47795 0.0333,0.01746 -4.9155,-2.34619 0.0288,0.01263 -5.4496,-2.19246 0.0255,0.0095 -5.9242,-2.01678 0.0232,0.0073 -6.3397,-1.81913 0.0323,0.0081 -13.6881,-2.95746 0.0411,0.0071 -14.6376,-1.90332 0.0423,0.0037 -15.1124,-0.67348 0.0344,3.5e-4 -7.5858,0.1841 0.0234,-0.0011 -7.5265,0.53664 0.0334,-0.0035 -14.6376,2.03689 0.0437,-0.0081 -13.6881,3.16502 0.0341,-0.0092 -6.3396,1.9468 0.0244,-0.0082 -5.9243,2.15832 0.0266,-0.01055 -5.4496,2.34634 0.0298,-0.01397 -4.9155,2.51087 0.034,-0.0191 -4.322,2.65187 0.0397,-0.02708 -3.6693,2.76939 0.0466,-0.03989 -2.9572,2.8634 0.0532,-0.06049 -2.1857,2.93391 0.074,-0.14256 -0.3924,1.19343 -0.9499,-0.31231 0.4177,-1.27073 2.2585,-3.03156 3.0083,-2.91287 3.713,-2.8024 4.3592,-2.67467 4.9475,-2.52722 5.4778,-2.3585 5.9497,-2.16762 6.3689,-1.95576 13.727,-3.17402 14.6763,-2.04227 7.5549,-0.53867 7.6148,-0.18481 15.1507,0.6752 14.6793,1.90874 13.7248,2.96538 6.3674,1.82708 5.9487,2.02509 5.4767,2.2034 4.9466,2.36107 4.3587,2.49898 3.7132,2.61875 3.0099,2.72324 2.2455,2.81652 1.411,2.90048 0.4767,2.87906 -0.9866,0.16336 z M 126.0881,87.60617 121.5,92.49997 120.3378,85.8932 Z"
         style="fill:#000000;fill-opacity:1;fill-rule:nonzero;stroke:none"
         id="path330" /><path
         d="m 70.00028,143.6502 0.48352,14.4224 1.41093,14.325 2.27588,14.0982 3.07908,13.7592 3.82066,13.308 4.50078,12.7444 5.1196,12.0688 5.67735,11.281 6.17432,10.381 6.611,9.369 6.9879,8.2445 7.306,7.0075 7.5579,5.6505 3.8697,2.2896 3.9057,1.9038 3.9415,1.5074 3.9756,1.0972 2.9355,0.4181 0.141,-0.99 -2.9038,-0.4136 0.0625,0.013 -3.9216,-1.0823 0.0456,0.015 -3.8985,-1.4909 0.0405,0.0176 -3.8676,-1.8853 0.0355,0.0191 -3.8291,-2.2657 0.0447,0.0299 -7.5118,-5.616 0.0467,0.0396 -7.2651,-6.9683 0.0353,0.0376 -6.9569,-8.208 0.0271,0.035 -6.587,-9.3349 0.0212,0.0327 -6.15537,-10.3492 0.0169,0.0308 -5.66213,-11.2507 0.01367,0.0295 -5.10722,-12.0396 0.01117,0.0288 -4.49065,-12.7158 0.0091,0.0285 -3.81243,-13.2792 0.0073,0.0287 -3.07255,-13.73 0.0057,0.0295 -2.27102,-14.0681 0.004,0.0307 -1.40782,-14.2936 0.0021,0.0323 -0.48298,-14.4062 -0.99944,0.0335 z m 78.42632,156.2735 6.2551,-2.4237 -5.6921,-3.5498 z"
         style="fill:#000000;fill-opacity:1;fill-rule:nonzero;stroke:none"
         id="path332" /><path
         d="m 95.45617,81.9745 -0.28588,-7.65491 0.0026,0.03551 -0.80793,-7.41444 0.0051,0.03492 -1.25539,-6.9335 0.0083,0.03769 -1.62828,-6.2121 0.01427,0.04547 -1.92659,-5.25022 0.02783,0.06232 -2.15032,-4.04788 0.04314,0.06752 -1.13575,-1.49791 0.05378,0.06015 -1.16372,-1.10715 0.09362,0.07017 -1.18236,-0.68633 0.15409,0.05809 -1.19169,-0.23546 0.21744,-0.0053 -1.19169,0.29595 0.17419,-0.08134 -1.18237,0.86268 0.08886,-0.08317 -1.16372,1.39161 0.04457,-0.06248 -1.13576,1.88276 0.02435,-0.04551 -1.09847,2.33615 0.01457,-0.03423 -1.05186,2.75174 0.0094,-0.02691 -0.99593,3.12956 0.0065,-0.02209 -0.93067,3.46958 0.0065,-0.02746 -1.62827,7.80813 0.0054,-0.03078 -1.2554,8.71489 0.0032,-0.0281 -0.80793,9.31939 0.0016,-0.02833 -0.13739,4.62385 -0.99956,-0.0297 0.13781,-4.63804 0.81037,-9.34764 1.25964,-8.74437 1.63435,-7.83727 0.93731,-3.49434 1.00374,-3.15411 1.06359,-2.78244 1.11738,-2.37637 1.16898,-1.93785 1.22775,-1.46817 1.31102,-0.95655 1.39488,-0.34641 1.38289,0.27323 1.30551,0.75783 1.23572,1.17566 1.1845,1.5622 2.18523,4.11359 1.94659,5.30473 1.63922,6.25385 1.26198,6.96988 0.81176,7.4497 0.28655,7.6727 -0.99931,0.03732 z M 73.67687,86.59176 70.5,92.50001 67.67952,86.41356 Z"
         style="fill:#000000;fill-opacity:1;fill-rule:nonzero;stroke:none"
         id="path334" /><path
         d="m 165.0002,271.4863 0.2862,-10.4405 0.81,-10.126 1.2591,-9.472 1.6335,-8.4892 0.9364,-3.7833 1.0027,-3.4148 1.0621,-3.0114 1.1153,-2.5705 1.1659,-2.0947 1.2241,-1.5864 1.3114,-1.0369 1.4087,-0.3791 1.3984,0.3054 1.3087,0.8396 1.2328,1.2963 1.1739,1.7112 1.121,2.0964 1.0688,2.4588 1.9406,5.845 1.6374,6.9045 1.2608,7.6965 0.8111,8.2269 0.1176,3.4797 -0.9994,0.0338 -0.1171,-3.4636 0.002,0.0322 -0.808,-8.1949 0.004,0.0318 -1.2554,-7.6634 0.007,0.0346 -1.6283,-6.866 0.012,0.0422 -1.9266,-5.8029 0.016,0.0418 -1.0518,-2.4197 0.0176,0.0364 -1.0985,-2.0543 0.0286,0.0471 -1.1357,-1.6556 0.05,0.0617 -1.1638,-1.2237 0.0924,0.0763 -1.1824,-0.7586 0.1633,0.0677 -1.1917,-0.2603 0.2367,-0.006 -1.1917,0.3207 0.1801,-0.0906 -1.1823,0.9349 0.0857,-0.0867 -1.1637,1.5081 0.041,-0.0623 -1.1357,2.0405 0.0218,-0.0442 -1.0985,2.5318 0.0128,-0.0327 -1.0518,2.9822 0.008,-0.0255 -0.9959,3.3917 0.006,-0.0208 -0.9307,3.7602 0.006,-0.0257 -1.6283,8.4621 0.005,-0.0286 -1.2554,9.4447 0.003,-0.026 -0.8079,10.0999 0.001,-0.0262 -0.2859,10.4274 -0.9996,-0.0274 z m 28.7513,-16.6284 -2.7957,6.0979 -3.2009,-5.8952 z"
         style="fill:#000000;fill-opacity:1;fill-rule:nonzero;stroke:none"
         id="path336" /><path
         d="m 334.4555,90.48122 -0.2866,-7.6251 -0.8118,-7.4037 -1.262,-6.92687 -1.6394,-6.21535 -1.9468,-5.27222 -2.1855,-4.08848 -1.1848,-1.55282 -1.2358,-1.16849 -1.3053,-0.75296 -1.3914,-0.27319 -2.5914,0.74142 -2.4291,2.02767 -2.2109,3.06678 -1.9582,3.932 -1.6468,4.62948 -1.2679,5.15983 -0.8161,6.13864 0.9913,0.13178 0.8125,-6.11166 -0.0101,0.05343 1.2554,-5.1089 -0.0145,0.04826 1.6283,-4.57734 -0.0235,0.05532 1.9265,-3.86859 -0.0419,0.06951 2.1503,-2.98266 -0.0852,0.09144 2.2995,-1.91953 -0.1829,0.09687 2.3741,-0.67921 -0.2339,0.0099 1.1917,0.23399 -0.1535,-0.05753 1.1823,0.68206 -0.0936,-0.06978 1.1637,1.10025 -0.054,-0.06003 1.1357,1.48858 -0.0434,-0.06758 2.1503,4.02266 -0.0281,-0.06252 1.9266,5.2175 -0.0144,-0.04568 1.6283,6.17338 -0.008,-0.03789 1.2554,6.89029 -0.005,-0.03513 0.8079,7.36823 -0.003,-0.03572 0.2859,7.6072 0.9993,-0.03756 z m -28.6131,-16.68471 2.6576,6.15932 3.3329,-5.82167 z"
         style="fill:#000000;fill-opacity:1;fill-rule:nonzero;stroke:none"
         id="path338" /><g
         id="g340"
         transform="translate(371.432,-251)"><text
           transform="matrix(1,0,0,-1,0,418)"
           style="font-variant:normal;font-weight:normal;font-size:18px;font-family:Helvetica;-inkscape-font-specification:Helvetica;writing-mode:lr-tb;fill:#000000;fill-opacity:1;fill-rule:nonzero;stroke:none"
           id="text344"><tspan
             x="0 12.0006 22.003201 27.001801 32.000401 42.002998 52.0056"
             y="0"
             sodipodi:role="line"
             id="tspan342">Button </tspan></text></g><g
         id="g346"
         transform="translate(383.432,-272)"><text
           transform="matrix(1,0,0,-1,0,418)"
           style="font-variant:normal;font-weight:normal;font-size:18px;font-family:Helvetica;-inkscape-font-specification:Helvetica;writing-mode:lr-tb;fill:#000000;fill-opacity:1;fill-rule:nonzero;stroke:none"
           id="text350"><tspan
             x="0 12.9996 22.9932 28.000799"
             y="0"
             sodipodi:role="line"
             id="tspan348">Not </tspan></text></g><g
         id="g352"
         transform="translate(369.432,-294)"><text
           transform="matrix(1,0,0,-1,0,418)"
           style="font-variant:normal;font-weight:normal;font-size:18px;font-family:Helvetica;-inkscape-font-specification:Helvetica;writing-mode:lr-tb;fill:#000000;fill-opacity:1;fill-rule:nonzero;stroke:none"
           id="text356"><tspan
             x="0 12.0006 22.0014 31.0014 41.002201 51.002998"
             y="0"
             sodipodi:role="line"
             id="tspan354">Pushed</tspan></text></g><g
         id="g358"
         transform="translate(205.1824,-381)"><text
           transform="matrix(1,0,0,-1,0,418)"
           style="font-variant:normal;font-weight:normal;font-size:18px;font-family:Helvetica;-inkscape-font-specification:Helvetica;writing-mode:lr-tb;fill:#000000;fill-opacity:1;fill-rule:nonzero;stroke:none"
           id="text362"><tspan
             x="0 12.0006 22.003201 27.001801 32.000401 42.002998 52.0056"
             y="0"
             sodipodi:role="line"
             id="tspan360">Button </tspan></text></g><g
         id="g364"
         transform="translate(203.1824,-402)"><text
           transform="matrix(1,0,0,-1,0,418)"
           style="font-variant:normal;font-weight:normal;font-size:18px;font-family:Helvetica;-inkscape-font-specification:Helvetica;writing-mode:lr-tb;fill:#000000;fill-opacity:1;fill-rule:nonzero;stroke:none"
           id="text368"><tspan
             x="0 12.0006 22.0014 31.0014 41.002201 51.002998"
             y="0"
             sodipodi:role="line"
             id="tspan366">Pushed</tspan></text></g><g
         id="g370"
         transform="translate(13.52799,-190)"><text
           transform="matrix(1,0,0,-1,0,418)"
           style="font-variant:normal;font-weight:normal;font-size:18px;font-family:Helvetica;-inkscape-font-specification:Helvetica;writing-mode:lr-tb;fill:#000000;fill-opacity:1;fill-rule:nonzero;stroke:none"
           id="text374"><tspan
             x="0 12.0006 22.003201 27.001801 32.000401 42.002998 52.0056"
             y="0"
             sodipodi:role="line"
             id="tspan372">Button </tspan></text></g><g
         id="g376"
         transform="translate(25.52799,-211)"><text
           transform="matrix(1,0,0,-1,0,418)"
           style="font-variant:normal;font-weight:normal;font-size:18px;font-family:Helvetica;-inkscape-font-specification:Helvetica;writing-mode:lr-tb;fill:#000000;fill-opacity:1;fill-rule:nonzero;stroke:none"
           id="text380"><tspan
             x="0 12.9996 22.9932 28.000799"
             y="0"
             sodipodi:role="line"
             id="tspan378">Not </tspan></text></g><g
         id="g382"
         transform="translate(11.52799,-233)"><text
           transform="matrix(1,0,0,-1,0,418)"
           style="font-variant:normal;font-weight:normal;font-size:18px;font-family:Helvetica;-inkscape-font-specification:Helvetica;writing-mode:lr-tb;fill:#000000;fill-opacity:1;fill-rule:nonzero;stroke:none"
           id="text386"><tspan
             x="0 12.0006 22.0014 31.0014 41.002201 51.002998"
             y="0"
             sodipodi:role="line"
             id="tspan384">Pushed</tspan></text></g></g></g></svg>
